<svg width="24" height="24" viewBox="0 0 24 24" fill="none" xmlns="http://www.w3.org/2000/svg">
<mask id="mask0_4_431" style="mask-type:alpha" maskUnits="userSpaceOnUse" x="1" y="1" width="23" height="22">
<ellipse cx="12.0002" cy="12" rx="11.0002" ry="11" fill="#D9D9D9"/>
</mask>
<g mask="url(#mask0_4_431)">
<rect width="24.0004" height="24" fill="#006FFD"/>
</g>
<path fill-rule="evenodd" clip-rule="evenodd" d="M9.63322 10.8133C9.63322 10.261 10.0809 9.81328 10.6332 9.81328H12C12.5523 9.81328 13 10.261 13 10.8133V15.47H14.2059C14.7582 15.47 15.2059 15.9178 15.2059 16.47C15.2059 17.0223 14.7582 17.47 14.2059 17.47H9.79413C9.24184 17.47 8.79413 17.0223 8.79413 16.47C8.79413 15.9178 9.24184 15.47 9.79413 15.47H11V11.8133H10.6332C10.0809 11.8133 9.63322 11.3656 9.63322 10.8133Z" fill="white"/>
<path d="M13.2326 7.83851C13.2326 8.56117 12.6468 9.147 11.9241 9.147C11.2015 9.147 10.6156 8.56117 10.6156 7.83851C10.6156 7.11586 11.2015 6.53003 11.9241 6.53003C12.6468 6.53003 13.2326 7.11586 13.2326 7.83851Z" fill="white"/>
</svg>
