<svg width="14" height="19" viewBox="0 0 14 19" fill="none" xmlns="http://www.w3.org/2000/svg">
<path d="M7 14.1666C7.91667 14.1666 8.66667 13.4166 8.66667 12.5C8.66667 11.5833 7.91667 10.8333 7 10.8333C6.08333 10.8333 5.33333 11.5833 5.33333 12.5C5.33333 13.4166 6.08333 14.1666 7 14.1666ZM12 6.66674H11.1667V5.0001C11.1667 2.70013 9.3 0.833496 7 0.833496C4.7 0.833496 2.83333 2.70013 2.83333 5.0001V6.66674H2C1.08333 6.66674 0.333333 7.41672 0.333333 8.33338V16.6666C0.333333 17.5832 1.08333 18.3332 2 18.3332H12C12.9167 18.3332 13.6667 17.5832 13.6667 16.6666V8.33338C13.6667 7.41672 12.9167 6.66674 12 6.66674ZM4.41667 5.0001C4.41667 3.57512 5.575 2.4168 7 2.4168C8.425 2.4168 9.58333 3.57512 9.58333 5.0001V6.66674H4.41667V5.0001ZM12 16.6666H2V8.33338H12V16.6666Z" fill="black"/>
</svg>
