<svg width="12" height="12" viewBox="0 0 12 12" fill="none" xmlns="http://www.w3.org/2000/svg">
<mask id="mask0_4_439" style="mask-type:alpha" maskUnits="userSpaceOnUse" x="0" y="0" width="12" height="12">
<path fill-rule="evenodd" clip-rule="evenodd" d="M0.96967 0.969666C1.26256 0.676778 1.73744 0.676778 2.03033 0.969666L11.0303 9.96952C11.3232 10.2624 11.3232 10.7373 11.0303 11.0302C10.7374 11.3231 10.2626 11.3231 9.96967 11.0302L0.96967 2.03031C0.676777 1.73742 0.676777 1.26255 0.96967 0.969666Z" fill="#006FFD"/>
<path fill-rule="evenodd" clip-rule="evenodd" d="M11.0303 0.969666C10.7374 0.676778 10.2626 0.676778 9.96967 0.969666L0.96967 9.96952C0.676777 10.2624 0.676777 10.7373 0.96967 11.0302C1.26256 11.3231 1.73744 11.3231 2.03033 11.0302L11.0303 2.03031C11.3232 1.73742 11.3232 1.26255 11.0303 0.969666Z" fill="#006FFD"/>
</mask>
<g mask="url(#mask0_4_439)">
<rect width="12" height="11.9998" fill="#71727A"/>
</g>
</svg>
