<svg width="16" height="18" viewBox="0 0 16 18" fill="none" xmlns="http://www.w3.org/2000/svg">
<path d="M13 12.4043C12.3667 12.4043 11.7958 12.6501 11.3625 13.0459L5.425 9.58343C5.47083 9.39593 5.5 9.2001 5.5 9.0001C5.5 8.8001 5.47083 8.60426 5.425 8.41676L11.3 4.9876C11.7458 5.40426 12.3417 5.6626 13 5.6626C14.3792 5.6626 15.5 4.54176 15.5 3.1626C15.5 1.78343 14.3792 0.662598 13 0.662598C11.6208 0.662598 10.5 1.78343 10.5 3.1626C10.5 3.3626 10.5292 3.55843 10.575 3.74593L4.7 7.1751C4.25417 6.75843 3.65833 6.5001 3 6.5001C1.62083 6.5001 0.5 7.62093 0.5 9.0001C0.5 10.3793 1.62083 11.5001 3 11.5001C3.65833 11.5001 4.25417 11.2418 4.7 10.8251L10.6375 14.2876C10.5958 14.4626 10.5708 14.6459 10.5708 14.8334C10.5708 16.1751 11.6583 17.2626 13 17.2626C14.3417 17.2626 15.4292 16.1751 15.4292 14.8334C15.4292 13.4918 14.3417 12.4043 13 12.4043Z" fill="#2368FE"/>
</svg>
